<?xml version="1.0" encoding="UTF-8" standalone="no"?>
<!DOCTYPE svg PUBLIC "-//W3C//DTD SVG 1.1//EN"
 "http://www.w3.org/Graphics/SVG/1.1/DTD/svg11.dtd">
<!-- Generated by graphviz version 2.40.1 (20161225.0304)
 -->
<!-- Title: UmlClassDiagram Pages: 1 -->
<svg width="670pt" height="575pt"
 viewBox="0.00 0.00 670.39 575.00" xmlns="http://www.w3.org/2000/svg" xmlns:xlink="http://www.w3.org/1999/xlink">
<g id="graph0" class="graph" transform="scale(1 1) rotate(0) translate(4 571)">
<title>UmlClassDiagram</title>
<polygon fill="#ffffff" stroke="transparent" points="-4,4 -4,-571 666.3858,-571 666.3858,4 -4,4"/>
<!-- 10 -->
<g id="Initializable" class="node">
<title>10</title>
<polygon fill="#f2f2f2" stroke="#000000" points="0,-.5 0,-175.7 215.115,-175.7 215.115,-.5 0,-.5"/>
<text text-anchor="middle" x="107.5575" y="-159.1" font-family="Times,serif" font-size="14.00" fill="#000000">Initializable</text>
<polyline fill="none" stroke="#000000" points="0,-150.9 215.115,-150.9 "/>
<text text-anchor="start" x="8" y="-134.3" font-family="Times,serif" font-size="14.00" fill="#000000">Private:</text>
<text text-anchor="start" x="8" y="-117.5" font-family="Times,serif" font-size="14.00" fill="#000000"> &#160;&#160;initialized: bool</text>
<polyline fill="none" stroke="#000000" points="0,-109.3 215.115,-109.3 "/>
<text text-anchor="start" x="8" y="-92.7" font-family="Times,serif" font-size="14.00" fill="#000000">Internal:</text>
<text text-anchor="start" x="8" y="-75.9" font-family="Times,serif" font-size="14.00" fill="#000000"> &#160;&#160;&#160;endInitialization(): bool</text>
<text text-anchor="start" x="8" y="-59.1" font-family="Times,serif" font-size="14.00" fill="#000000">Public:</text>
<text text-anchor="start" x="8" y="-42.3" font-family="Times,serif" font-size="14.00" fill="#000000"> &#160;&#160;&#160;&lt;&lt;modifier&gt;&gt; afterInitialized()</text>
<text text-anchor="start" x="8" y="-25.5" font-family="Times,serif" font-size="14.00" fill="#000000"> &#160;&#160;&#160;&lt;&lt;modifier&gt;&gt; beforeInitialized()</text>
<text text-anchor="start" x="8" y="-8.7" font-family="Times,serif" font-size="14.00" fill="#000000"> &#160;&#160;&#160;getInitialized(): bool</text>
</g>
<!-- 21 -->
<g id="Controlled" class="node">
<title>21</title>
<polygon fill="#f2f2f2" stroke="#000000" points="309.7005,-340.9 309.7005,-566.5 585.4145,-566.5 585.4145,-340.9 309.7005,-340.9"/>
<text text-anchor="middle" x="447.5575" y="-549.9" font-family="Times,serif" font-size="14.00" fill="#000000">Controlled</text>
<polyline fill="none" stroke="#000000" points="309.7005,-541.7 585.4145,-541.7 "/>
<text text-anchor="start" x="317.7005" y="-525.1" font-family="Times,serif" font-size="14.00" fill="#000000">Internal:</text>
<text text-anchor="start" x="317.7005" y="-508.3" font-family="Times,serif" font-size="14.00" fill="#000000"> &#160;&#160;controller: IController</text>
<polyline fill="none" stroke="#000000" points="309.7005,-500.1 585.4145,-500.1 "/>
<text text-anchor="start" x="317.7005" y="-483.5" font-family="Times,serif" font-size="14.00" fill="#000000">Public:</text>
<text text-anchor="start" x="317.7005" y="-466.7" font-family="Times,serif" font-size="14.00" fill="#000000"> &#160;&#160;&#160;&lt;&lt;modifier&gt;&gt; onlyWhitelistedCallers()</text>
<text text-anchor="start" x="317.7005" y="-449.9" font-family="Times,serif" font-size="14.00" fill="#000000"> &#160;&#160;&#160;&lt;&lt;modifier&gt;&gt; onlyCaller(_key: bytes32)</text>
<text text-anchor="start" x="317.7005" y="-433.1" font-family="Times,serif" font-size="14.00" fill="#000000"> &#160;&#160;&#160;&lt;&lt;modifier&gt;&gt; onlyControllerCaller()</text>
<text text-anchor="start" x="317.7005" y="-416.3" font-family="Times,serif" font-size="14.00" fill="#000000"> &#160;&#160;&#160;&lt;&lt;modifier&gt;&gt; onlyInGoodTimes()</text>
<text text-anchor="start" x="317.7005" y="-399.5" font-family="Times,serif" font-size="14.00" fill="#000000"> &#160;&#160;&#160;&lt;&lt;modifier&gt;&gt; onlyInBadTimes()</text>
<text text-anchor="start" x="317.7005" y="-382.7" font-family="Times,serif" font-size="14.00" fill="#000000"> &#160;&#160;&#160;constructor()</text>
<text text-anchor="start" x="317.7005" y="-365.9" font-family="Times,serif" font-size="14.00" fill="#000000"> &#160;&#160;&#160;getController(): IController</text>
<text text-anchor="start" x="317.7005" y="-349.1" font-family="Times,serif" font-size="14.00" fill="#000000"> &#160;&#160;&#160;setController(_controller: IController): bool</text>
</g>
<!-- 22 -->
<g id="DelegationTarget" class="node">
<title>22</title>
<polygon fill="#f2f2f2" stroke="#000000" points="343.1367,-212.7 343.1367,-303.9 551.9783,-303.9 551.9783,-212.7 343.1367,-212.7"/>
<text text-anchor="middle" x="447.5575" y="-287.3" font-family="Times,serif" font-size="14.00" fill="#000000">DelegationTarget</text>
<polyline fill="none" stroke="#000000" points="343.1367,-279.1 551.9783,-279.1 "/>
<text text-anchor="start" x="351.1367" y="-262.5" font-family="Times,serif" font-size="14.00" fill="#000000">Public:</text>
<text text-anchor="start" x="351.1367" y="-245.7" font-family="Times,serif" font-size="14.00" fill="#000000"> &#160;&#160;controllerLookupName: bytes32</text>
<polyline fill="none" stroke="#000000" points="343.1367,-237.5 551.9783,-237.5 "/>
<text text-anchor="middle" x="447.5575" y="-220.9" font-family="Times,serif" font-size="14.00" fill="#000000"> </text>
</g>
<!-- 22&#45;&gt;21 -->
<g id="edge1" class="edge">
<title>22&#45;&gt;21</title>
<path fill="none" stroke="#000000" d="M447.5575,-304.1126C447.5575,-306.2065 447.5575,-308.3452 447.5575,-310.5226"/>
<polygon fill="none" stroke="#000000" points="437.0576,-310.5268 447.5575,-340.5268 458.0576,-310.5268 437.0576,-310.5268"/>
</g>
<!-- 23 -->
<g id="Delegator" class="node">
<title>23</title>
<polygon fill="#f2f2f2" stroke="#000000" points="232.7292,-34.1 232.7292,-142.1 662.3858,-142.1 662.3858,-34.1 232.7292,-34.1"/>
<text text-anchor="middle" x="447.5575" y="-125.5" font-family="Times,serif" font-size="14.00" fill="#000000">Delegator</text>
<polyline fill="none" stroke="#000000" points="232.7292,-117.3 662.3858,-117.3 "/>
<text text-anchor="middle" x="447.5575" y="-100.7" font-family="Times,serif" font-size="14.00" fill="#000000"> </text>
<polyline fill="none" stroke="#000000" points="232.7292,-92.5 662.3858,-92.5 "/>
<text text-anchor="start" x="240.7292" y="-75.9" font-family="Times,serif" font-size="14.00" fill="#000000">Public:</text>
<text text-anchor="start" x="240.7292" y="-59.1" font-family="Times,serif" font-size="14.00" fill="#000000"> &#160;&#160;&#160;&lt;&lt;fallback&gt;&gt; ()</text>
<text text-anchor="start" x="240.7292" y="-42.3" font-family="Times,serif" font-size="14.00" fill="#000000"> &#160;&#160;&#160;constructor(_controller: IController, _controllerLookupName: bytes32)</text>
</g>
<!-- 23&#45;&gt;22 -->
<g id="edge2" class="edge">
<title>23&#45;&gt;22</title>
<path fill="none" stroke="#000000" d="M447.5575,-142.4203C447.5575,-155.1161 447.5575,-168.8681 447.5575,-182.3132"/>
<polygon fill="none" stroke="#000000" points="437.0576,-182.4866 447.5575,-212.4866 458.0576,-182.4867 437.0576,-182.4866"/>
</g>
</g>
</svg>
